<svg id="Layer_1" data-name="Layer 1" xmlns="http://www.w3.org/2000/svg" viewBox="0 0 1920 1080"><defs><style>.cls-1{fill:#dadada;}.cls-2{fill:#bebebe;}.cls-3{fill:#ededed;}.cls-4{fill:#e4e4e4;}.cls-5{fill:#fff;}.cls-12,.cls-19,.cls-6{fill:#bb464b;}.cls-7{fill:#e0684b;}.cls-8{fill:#e0ded8;}.cls-9{fill:#d5d2ca;}.cls-10{fill:#e6e6e6;}.cls-11,.cls-57{fill:none;stroke-miterlimit:10;}.cls-11{stroke:#bebebe;stroke-width:0.41px;}.cls-12{font-size:30px;}.cls-12,.cls-19{font-family:AcuminProCond-Medium, Acumin Pro Condensed;font-weight:500;}.cls-13{letter-spacing:0em;}.cls-14{letter-spacing:0.01em;}.cls-15{letter-spacing:0em;}.cls-16{letter-spacing:-0.01em;}.cls-17{letter-spacing:0em;}.cls-18{letter-spacing:0.01em;}.cls-19{font-size:15px;}.cls-20{letter-spacing:-0.01em;}.cls-21{letter-spacing:0em;}.cls-22{letter-spacing:0.01em;}.cls-23{letter-spacing:0.02em;}.cls-24{letter-spacing:0em;}.cls-25{letter-spacing:0.02em;}.cls-26{letter-spacing:0em;}.cls-27{letter-spacing:-0.01em;}.cls-28{letter-spacing:0em;}.cls-29{letter-spacing:0.01em;}.cls-30{letter-spacing:0em;}.cls-31{letter-spacing:0.01em;}.cls-32{letter-spacing:0em;}.cls-33{letter-spacing:-0.01em;}.cls-34{letter-spacing:0em;}.cls-35{letter-spacing:0em;}.cls-36{letter-spacing:-0.01em;}.cls-37{letter-spacing:0.03em;}.cls-38{letter-spacing:0em;}.cls-39{letter-spacing:-0.01em;}.cls-40{letter-spacing:0.01em;}.cls-41{letter-spacing:0em;}.cls-42{letter-spacing:0em;}.cls-43{letter-spacing:0em;}.cls-44{letter-spacing:-0.01em;}.cls-45{letter-spacing:0.01em;}.cls-46{letter-spacing:0.01em;}.cls-47{letter-spacing:0em;}.cls-48{letter-spacing:0.02em;}.cls-49{letter-spacing:-0.05em;}.cls-50{letter-spacing:0.02em;}.cls-51{letter-spacing:0.01em;}.cls-52{letter-spacing:0em;}.cls-53{letter-spacing:-0.04em;}.cls-54{letter-spacing:-0.01em;}.cls-55{letter-spacing:0.01em;}.cls-56{letter-spacing:0.01em;}.cls-57{stroke:#bb464b;stroke-width:0.7px;}</style></defs><title>babylonjs_safeSpace</title><polygon class="cls-1" points="584.42 716.36 562.24 703.54 540.89 715.87 563.08 728.68 584.42 716.36"/><polygon class="cls-1" points="463.99 728.68 534.88 687.75 513.53 675.43 442.64 716.36 463.99 728.68"/><polygon class="cls-1" points="491.35 770.09 513.53 782.9 535.72 770.09 513.53 757.28 491.35 770.09"/><polygon class="cls-2" points="563.08 728.68 563.08 785.89 513.53 814.49 463.99 785.89 463.99 728.68 442.64 716.36 442.64 798.21 513.53 839.14 584.42 798.21 584.42 716.36 563.08 728.68"/><polygon class="cls-2" points="513.53 731.66 491.35 744.47 491.35 770.09 513.53 757.28 535.72 770.09 535.72 744.47 513.53 731.66"/><polygon class="cls-3" points="563.08 728.68 535.72 744.47 535.72 770.09 513.53 782.9 513.53 814.49 563.08 785.89 563.08 728.68"/><polygon class="cls-4" points="463.99 728.68 491.35 744.47 491.35 770.09 513.53 782.9 513.53 814.49 463.99 785.89 463.99 728.68"/><polygon class="cls-5" points="534.88 687.75 562.24 703.54 540.89 715.87 563.08 728.68 535.72 744.47 513.53 731.66 491.35 744.47 463.99 728.68 534.88 687.75"/><polygon class="cls-1" points="726.2 634.5 704.01 621.69 682.67 634.01 704.86 646.82 726.2 634.5"/><polygon class="cls-1" points="605.77 646.82 676.66 605.89 655.31 593.57 584.42 634.5 605.77 646.82"/><polygon class="cls-1" points="633.13 688.24 655.31 701.05 677.5 688.24 655.31 675.43 633.13 688.24"/><polygon class="cls-2" points="704.86 646.82 704.86 704.03 655.31 732.64 605.77 704.03 605.77 646.82 584.42 634.5 584.42 716.36 655.31 757.28 726.2 716.36 726.2 634.5 704.86 646.82"/><polygon class="cls-2" points="655.31 649.81 633.13 662.62 633.13 688.24 655.31 675.43 677.5 688.24 677.5 662.62 655.31 649.81"/><polygon class="cls-3" points="704.86 646.82 677.5 662.62 677.5 688.24 655.31 701.05 655.31 732.64 704.86 704.03 704.86 646.82"/><polygon class="cls-4" points="605.77 646.82 633.13 662.62 633.13 688.24 655.31 701.05 655.31 732.64 605.77 704.03 605.77 646.82"/><polygon class="cls-5" points="676.66 605.89 704.01 621.69 682.67 634.01 704.86 646.82 677.5 662.62 655.31 649.81 633.13 662.62 605.77 646.82 676.66 605.89"/><path class="cls-6" d="M369.7,283.93h13.9V315.1c2.47-4.15,7.4-8.19,17.16-8.19,15.25,0,23.54,12.56,23.54,29,0,16.93-8.63,31.28-25.11,31.28-8.75,0-12.89-2.92-15.7-7.51a42.26,42.26,0,0,1-.56,6.16H369.59c.11-6.28.11-12.67.11-19.06Zm27,34.3c-10.09,0-13.79,6.73-13.79,19.06,0,10.54,3.25,18.73,13.57,18.73,8.74,0,13.56-7.85,13.56-19.74C410.06,325.75,405.8,318.23,396.72,318.23Z"/><path class="cls-6" d="M481,351.76a117.05,117.05,0,0,0,.78,14.12H468.47a28.77,28.77,0,0,1-.89-6.28c-2,3.48-6.17,7.63-16.71,7.63-13.79,0-19.62-9.08-19.62-17.94,0-13,10.43-19.06,27.36-19.06h8.74v-3.92c0-4.49-1.46-9.2-10.09-9.2-7.62,0-9.19,3.48-10,7.74H433.94c.79-9.42,6.73-18.05,23.88-17.94C472.85,307,481,313,481,326.42ZM467.46,339H460c-10.2,0-14.68,3-14.68,9.52,0,4.71,3.13,8.53,9.3,8.53,11.44,0,12.89-7.85,12.89-16.37Z"/><path class="cls-6" d="M493.59,283.93h13.9V315.1c2.46-4.15,7.4-8.19,17.15-8.19,15.25,0,23.54,12.56,23.54,29,0,16.93-8.63,31.28-25.11,31.28-8.74,0-12.89-2.92-15.69-7.51a42.1,42.1,0,0,1-.57,6.16H493.47c.12-6.28.12-12.67.12-19.06Zm27,34.3c-10.1,0-13.8,6.73-13.8,19.06,0,10.54,3.26,18.73,13.57,18.73,8.75,0,13.57-7.85,13.57-19.74C534,325.75,529.69,318.23,520.61,318.23Z"/><path class="cls-6" d="M565.67,308.26c7.18,22.53,12.34,39.35,13.46,44.95h.11c1.46-6,5-19.06,12.78-44.95h13.9L586.08,367.9c-5.61,16.71-10.09,21.41-23.21,21.41a61.88,61.88,0,0,1-7.06-.44V377.43c1.23.11,2.91.22,4.37.22,6.28,0,9.19-2.35,11.77-9.86l-21.19-59.53Z"/><path class="cls-6" d="M612.09,365.88V283.93H626v81.95Z"/><path class="cls-6" d="M691.8,337c0,17.15-10.09,30.27-28.14,30.27-17.49,0-27.69-12.78-27.69-30.05,0-17.49,10.42-30.27,28.36-30.27C681,306.91,691.8,318.91,691.8,337Zm-41.71.11c0,11.66,5.27,19.06,13.91,19.06s13.56-7.29,13.56-18.95c0-12.44-4.82-19.17-13.79-19.17C655.25,318,650.09,324.51,650.09,337.07Z"/><path class="cls-6" d="M701.89,322.72c0-4.93,0-10.09-.11-14.46h13.45a61.47,61.47,0,0,1,.56,8.07c2-4,6.73-9.42,17.15-9.42,11.33,0,19.18,7.4,19.18,22.2v36.77H738.21v-35.2c0-7.18-2.58-12.33-10.2-12.33-8.18,0-12.22,5.27-12.22,15.92v31.61h-13.9Z"/><path class="cls-6" d="M765.34,365.88V347.27h14.92v18.61Z"/><path class="cls-6" d="M803.24,309.49v59.42c0,15.36-3.7,20.52-14.69,20.52-.45,0-2.69-.12-3.47-.23v-6.72a17.61,17.61,0,0,0,2.35.11c7.51,0,8.3-4,8.3-12.56V309.49Zm-7.51-14.58V283.37h7.51v11.54Z"/><path class="cls-6" d="M820.28,350.07c1.79,6.73,6.72,10.88,15,10.88,9.19,0,12.89-4.15,12.89-10s-2.57-8.74-14.35-11.55C818.48,335.72,815,331,815,323.5c0-7.84,5.94-15.36,19.39-15.36s19.62,8.08,20.52,16h-7.4c-.9-4.26-4.26-9.76-13.34-9.76s-11.55,4.37-11.55,8.52c0,4.71,2.47,7.07,13.23,9.64C852.34,336.51,856,342,856,350.41c0,10.09-8.07,16.82-21,16.82-13.68,0-20.86-7.07-22.31-17.16Z"/><polygon class="cls-7" points="343.32 284.06 321.13 271.25 299.79 283.58 321.98 296.39 343.32 284.06"/><polygon class="cls-7" points="222.89 296.39 293.77 255.46 272.43 243.13 201.54 284.06 222.89 296.39"/><polygon class="cls-7" points="250.24 337.8 272.43 350.61 294.62 337.8 272.43 324.99 250.24 337.8"/><polygon class="cls-6" points="321.98 296.39 321.98 353.6 272.43 382.2 222.89 353.6 222.89 296.39 201.54 284.06 201.54 365.92 272.43 406.85 343.32 365.92 343.32 284.06 321.98 296.39"/><polygon class="cls-6" points="272.43 299.37 250.24 312.18 250.24 337.8 272.43 324.99 294.62 337.8 294.62 312.18 272.43 299.37"/><polygon class="cls-8" points="321.98 296.39 294.62 312.18 294.62 337.8 272.43 350.61 272.43 382.2 321.98 353.6 321.98 296.39"/><polygon class="cls-9" points="222.89 296.39 250.24 312.18 250.24 337.8 272.43 350.61 272.43 382.2 222.89 353.6 222.89 296.39"/><polygon class="cls-5" points="293.77 255.46 321.13 271.25 299.79 283.58 321.98 296.39 294.62 312.18 272.43 299.37 250.24 312.18 222.89 296.39 293.77 255.46"/><path class="cls-10" d="M857,323.06c0-4.93,0-10-.11-14.8h13.34c.22,1.46.45,5.05.56,7.51,2.8-4.59,7.62-8.85,16.25-8.85,8.19,0,13.12,4.26,15.25,9.3,3.25-4.93,8.41-9.3,17.93-9.3,9.87,0,18.28,5.94,18.28,21.18v37.78H924.84V329.79c0-5.72-2-11.55-9.42-11.55-7.62,0-10.76,5.38-10.76,14.68v33H891V330.23c0-6.39-1.69-11.88-9.2-11.88s-11,5.16-11,15.47v32.06H857Z"/><path class="cls-10" d="M120,323.06c0-4.93,0-10-.11-14.8h13.34c.23,1.46.45,5.05.56,7.51,2.81-4.59,7.63-8.85,16.26-8.85,8.18,0,13.11,4.26,15.24,9.3,3.25-4.93,8.41-9.3,17.94-9.3,9.86,0,18.27,5.94,18.27,21.18v37.78H187.87V329.79c0-5.72-2-11.55-9.42-11.55-7.62,0-10.76,5.38-10.76,14.68v33H154V330.23c0-6.39-1.68-11.88-9.19-11.88s-11,5.16-11,15.47v32.06H120Z"/><path class="cls-10" d="M266.17,200.31c0-4.93,0-10-.11-14.8H279.4c.22,1.46.45,5.05.56,7.52,2.8-4.6,7.62-8.86,16.25-8.86,8.19,0,13.12,4.26,15.25,9.3,3.25-4.93,8.41-9.3,17.93-9.3,9.87,0,18.28,5.94,18.28,21.19v37.78H334V207c0-5.72-2-11.55-9.42-11.55-7.62,0-10.76,5.38-10.76,14.69v33H300.14V207.49c0-6.39-1.69-11.89-9.2-11.89s-11,5.16-11,15.47v32.07H266.17Z"/><path class="cls-10" d="M266.17,421.65c0-4.94,0-10-.11-14.8H279.4c.22,1.46.45,5,.56,7.51,2.8-4.6,7.62-8.86,16.25-8.86,8.19,0,13.12,4.26,15.25,9.31,3.25-4.93,8.41-9.31,17.93-9.31,9.87,0,18.28,5.94,18.28,21.19v37.78H334v-36.1c0-5.72-2-11.54-9.42-11.54-7.62,0-10.76,5.38-10.76,14.68v33H300.14V428.82c0-6.39-1.69-11.88-9.2-11.88s-11,5.15-11,15.47v32.06H266.17Z"/><rect class="cls-11" x="120.03" y="185.56" width="818.46" height="278.95"/><polygon class="cls-7" points="655.31 675.43 633.13 662.62 611.78 674.94 633.97 687.75 655.31 675.43"/><polygon class="cls-7" points="534.88 687.75 605.77 646.82 584.42 634.5 513.53 675.43 534.88 687.75"/><polygon class="cls-7" points="562.24 729.16 584.42 741.98 606.61 729.16 584.42 716.36 562.24 729.16"/><polygon class="cls-6" points="633.97 687.75 633.97 744.96 584.42 773.56 534.88 744.96 534.88 687.75 513.53 675.43 513.53 757.28 584.42 798.21 655.31 757.28 655.31 675.43 633.97 687.75"/><polygon class="cls-6" points="584.42 690.74 562.24 703.54 562.24 729.16 584.42 716.36 606.61 729.16 606.61 703.54 584.42 690.74"/><polygon class="cls-8" points="633.97 687.75 606.61 703.54 606.61 729.16 584.42 741.98 584.42 773.56 633.97 744.96 633.97 687.75"/><polygon class="cls-9" points="534.88 687.75 562.24 703.54 562.24 729.16 584.42 741.98 584.42 773.56 534.88 744.96 534.88 687.75"/><polygon class="cls-5" points="605.77 646.82 633.13 662.62 611.78 674.94 633.97 687.75 606.61 703.54 584.42 690.74 562.24 703.54 534.88 687.75 605.77 646.82"/><rect class="cls-11" x="442.66" y="592.96" width="283.48" height="246.06"/><polygon class="cls-1" points="261.79 716.36 239.6 703.54 218.26 715.87 240.45 728.68 261.79 716.36"/><polygon class="cls-1" points="141.36 728.68 212.25 687.75 190.9 675.43 120.01 716.36 141.36 728.68"/><polygon class="cls-1" points="168.71 770.09 190.9 782.9 213.09 770.09 190.9 757.28 168.71 770.09"/><polygon class="cls-2" points="240.45 728.68 240.45 785.89 190.9 814.49 141.36 785.89 141.36 728.68 120.01 716.36 120.01 798.21 190.9 839.14 261.79 798.21 261.79 716.36 240.45 728.68"/><polygon class="cls-2" points="190.9 731.66 168.71 744.47 168.71 770.09 190.9 757.28 213.09 770.09 213.09 744.47 190.9 731.66"/><polygon class="cls-3" points="240.45 728.68 213.09 744.47 213.09 770.09 190.9 782.9 190.9 814.49 240.45 785.89 240.45 728.68"/><polygon class="cls-4" points="141.36 728.68 168.71 744.47 168.71 770.09 190.9 782.9 190.9 814.49 141.36 785.89 141.36 728.68"/><polygon class="cls-5" points="212.25 687.75 239.6 703.54 218.26 715.87 240.45 728.68 213.09 744.47 190.9 731.66 168.71 744.47 141.36 728.68 212.25 687.75"/><polygon class="cls-1" points="403.57 634.5 381.38 621.69 360.04 634.01 382.23 646.82 403.57 634.5"/><polygon class="cls-1" points="283.14 646.82 354.02 605.89 332.68 593.57 261.79 634.5 283.14 646.82"/><polygon class="cls-1" points="310.49 688.24 332.68 701.05 354.87 688.24 332.68 675.43 310.49 688.24"/><polygon class="cls-2" points="382.23 646.82 382.23 704.03 332.68 732.64 283.14 704.03 283.14 646.82 261.79 634.5 261.79 716.36 332.68 757.28 403.57 716.36 403.57 634.5 382.23 646.82"/><polygon class="cls-2" points="332.68 649.81 310.49 662.62 310.49 688.24 332.68 675.43 354.87 688.24 354.87 662.62 332.68 649.81"/><polygon class="cls-3" points="382.23 646.82 354.87 662.62 354.87 688.24 332.68 701.05 332.68 732.64 382.23 704.03 382.23 646.82"/><polygon class="cls-4" points="283.14 646.82 310.49 662.62 310.49 688.24 332.68 701.05 332.68 732.64 283.14 704.03 283.14 646.82"/><polygon class="cls-5" points="354.02 605.89 381.38 621.69 360.04 634.01 382.23 646.82 354.87 662.62 332.68 649.81 310.49 662.62 283.14 646.82 354.02 605.89"/><rect class="cls-11" x="120.03" y="592.96" width="283.48" height="246.06"/><path class="cls-6" d="M1232.27,283.93h13.9V315.1c2.47-4.15,7.4-8.19,17.16-8.19,15.25,0,23.54,12.56,23.54,29,0,16.93-8.63,31.28-25.11,31.28-8.75,0-12.9-2.92-15.7-7.51a42.26,42.26,0,0,1-.56,6.16h-13.34c.11-6.28.11-12.67.11-19.06Zm27,34.3c-10.09,0-13.79,6.73-13.79,19.06,0,10.54,3.25,18.73,13.57,18.73,8.74,0,13.56-7.85,13.56-19.74C1272.63,325.75,1268.37,318.23,1259.29,318.23Z"/><path class="cls-6" d="M1343.6,351.76a117.05,117.05,0,0,0,.78,14.12H1331a28.77,28.77,0,0,1-.89-6.28c-2,3.48-6.17,7.63-16.71,7.63-13.79,0-19.62-9.08-19.62-17.94,0-13,10.43-19.06,27.36-19.06h8.74v-3.92c0-4.49-1.46-9.2-10.09-9.2-7.62,0-9.19,3.48-10,7.74h-13.34c.79-9.42,6.73-18.05,23.88-17.94,15,.11,23.21,6.06,23.21,19.51ZM1330,339h-7.51c-10.2,0-14.69,3-14.69,9.52,0,4.71,3.14,8.53,9.31,8.53,11.44,0,12.89-7.85,12.89-16.37Z"/><path class="cls-6" d="M1356.16,283.93h13.9V315.1c2.46-4.15,7.4-8.19,17.15-8.19,15.25,0,23.54,12.56,23.54,29,0,16.93-8.63,31.28-25.11,31.28-8.74,0-12.89-2.92-15.69-7.51a42.1,42.1,0,0,1-.57,6.16H1356c.12-6.28.12-12.67.12-19.06Zm27,34.3c-10.09,0-13.79,6.73-13.79,19.06,0,10.54,3.26,18.73,13.57,18.73,8.75,0,13.57-7.85,13.57-19.74C1396.52,325.75,1392.26,318.23,1383.17,318.23Z"/><path class="cls-6" d="M1428.24,308.26c7.18,22.53,12.33,39.35,13.46,44.95h.11c1.46-6,5-19.06,12.78-44.95h13.9l-19.84,59.64c-5.61,16.71-10.09,21.41-23.21,21.41a61.88,61.88,0,0,1-7.06-.44V377.43c1.23.11,2.91.22,4.37.22,6.28,0,9.19-2.35,11.77-9.86l-21.19-59.53Z"/><path class="cls-6" d="M1474.66,365.88V283.93h13.9v81.95Z"/><path class="cls-6" d="M1554.37,337c0,17.15-10.09,30.27-28.14,30.27-17.49,0-27.69-12.78-27.69-30.05,0-17.49,10.42-30.27,28.36-30.27C1543.61,306.91,1554.37,318.91,1554.37,337Zm-41.71.11c0,11.66,5.27,19.06,13.9,19.06s13.57-7.29,13.57-18.95c0-12.44-4.82-19.17-13.79-19.17C1517.82,318,1512.66,324.51,1512.66,337.07Z"/><path class="cls-6" d="M1564.46,322.72c0-4.93,0-10.09-.11-14.46h13.45a61.47,61.47,0,0,1,.56,8.07c2-4,6.73-9.42,17.15-9.42,11.33,0,19.17,7.4,19.17,22.2v36.77h-13.9v-35.2c0-7.18-2.58-12.33-10.2-12.33-8.18,0-12.22,5.27-12.22,15.92v31.61h-13.9Z"/><path class="cls-6" d="M1627.91,365.88V347.27h14.91v18.61Z"/><path class="cls-6" d="M1665.81,309.49v59.42c0,15.36-3.7,20.52-14.69,20.52-.45,0-2.69-.12-3.48-.23v-6.72a17.83,17.83,0,0,0,2.36.11c7.51,0,8.3-4,8.3-12.56V309.49Zm-7.51-14.58V283.37h7.51v11.54Z"/><path class="cls-6" d="M1682.85,350.07c1.79,6.73,6.72,10.88,15,10.88,9.19,0,12.89-4.15,12.89-10s-2.57-8.74-14.35-11.55c-15.36-3.7-18.83-8.4-18.83-15.92,0-7.84,5.94-15.36,19.39-15.36s19.62,8.08,20.52,16h-7.4c-.9-4.26-4.26-9.76-13.34-9.76s-11.55,4.37-11.55,8.52c0,4.71,2.47,7.07,13.23,9.64,16.48,3.93,20.18,9.42,20.18,17.83,0,10.09-8.07,16.82-21,16.82-13.68,0-20.86-7.07-22.31-17.16Z"/><polygon class="cls-7" points="1205.89 284.06 1183.7 271.25 1162.36 283.58 1184.55 296.39 1205.89 284.06"/><polygon class="cls-7" points="1085.46 296.39 1156.35 255.46 1135 243.13 1064.11 284.06 1085.46 296.39"/><polygon class="cls-7" points="1112.81 337.8 1135 350.61 1157.19 337.8 1135 324.99 1112.81 337.8"/><polygon class="cls-6" points="1184.55 296.39 1184.55 353.6 1135 382.2 1085.46 353.6 1085.46 296.39 1064.11 284.06 1064.11 365.92 1135 406.85 1205.89 365.92 1205.89 284.06 1184.55 296.39"/><polygon class="cls-6" points="1135 299.37 1112.81 312.18 1112.81 337.8 1135 324.99 1157.19 337.8 1157.19 312.18 1135 299.37"/><polygon class="cls-8" points="1184.55 296.39 1157.19 312.18 1157.19 337.8 1135 350.61 1135 382.2 1184.55 353.6 1184.55 296.39"/><polygon class="cls-9" points="1085.46 296.39 1112.81 312.18 1112.81 337.8 1135 350.61 1135 382.2 1085.46 353.6 1085.46 296.39"/><polygon class="cls-5" points="1156.35 255.46 1183.7 271.25 1162.36 283.58 1184.55 296.39 1157.19 312.18 1135 299.37 1112.81 312.18 1085.46 296.39 1156.35 255.46"/><rect class="cls-11" x="982.6" y="185.56" width="818.46" height="278.95"/><polygon class="cls-7" points="977.65 675.43 955.47 662.62 934.12 674.94 956.31 687.75 977.65 675.43"/><polygon class="cls-7" points="857.22 687.75 928.11 646.82 906.76 634.5 835.88 675.43 857.22 687.75"/><polygon class="cls-7" points="884.58 729.16 906.76 741.98 928.95 729.16 906.76 716.36 884.58 729.16"/><polygon class="cls-6" points="956.31 687.75 956.31 744.96 906.76 773.56 857.22 744.96 857.22 687.75 835.88 675.43 835.88 757.28 906.76 798.21 977.65 757.28 977.65 675.43 956.31 687.75"/><polygon class="cls-6" points="906.76 690.74 884.58 703.54 884.58 729.16 906.76 716.36 928.95 729.16 928.95 703.54 906.76 690.74"/><polygon class="cls-8" points="956.31 687.75 928.95 703.54 928.95 729.16 906.76 741.98 906.76 773.56 956.31 744.96 956.31 687.75"/><polygon class="cls-9" points="857.22 687.75 884.58 703.54 884.58 729.16 906.76 741.98 906.76 773.56 857.22 744.96 857.22 687.75"/><polygon class="cls-5" points="928.11 646.82 955.47 662.62 934.12 674.94 956.31 687.75 928.95 703.54 906.76 690.74 884.58 703.54 857.22 687.75 928.11 646.82"/><rect class="cls-11" x="765" y="592.96" width="283.48" height="246.06"/><text class="cls-12" transform="translate(117.17 128.23)">s<tspan class="cls-13" x="11.31" y="0">a</tspan><tspan class="cls-14" x="23.85" y="0">f</tspan><tspan class="cls-15" x="30.57" y="0">e </tspan><tspan class="cls-16" x="48.66" y="0">s</tspan><tspan class="cls-13" x="59.79" y="0">p</tspan><tspan class="cls-17" x="72.96" y="0">a</tspan><tspan class="cls-18" x="85.59" y="0">c</tspan><tspan x="97.68" y="0">e</tspan></text><text class="cls-19" transform="translate(120.17 488.89)"><tspan class="cls-20">S</tspan><tspan class="cls-21" x="6.41" y="0">p</tspan><tspan x="12.99" y="0">acing </tspan><tspan class="cls-14" x="44.49" y="0">f</tspan><tspan x="47.85" y="0">or the ident</tspan><tspan class="cls-22" x="106.98" y="0">i</tspan><tspan class="cls-23" x="110.13" y="0">t</tspan><tspan x="114.15" y="0">y </tspan><tspan class="cls-24" x="122.85" y="0">w</tspan><tspan class="cls-22" x="132.06" y="0">i</tspan><tspan x="135.21" y="0">th a lo</tspan><tspan class="cls-13" x="166.98" y="0">w</tspan><tspan x="176.08" y="0">e</tspan><tspan class="cls-16" x="182.28" y="0">r</tspan><tspan class="cls-25" x="186.43" y="0">-</tspan><tspan class="cls-26" x="190.86" y="0">c</tspan><tspan class="cls-27" x="196.84" y="0">a</tspan><tspan class="cls-28" x="203.06" y="0">se m </tspan><tspan class="cls-29" x="230.59" y="0">f</tspan><tspan class="cls-30" x="234.07" y="0">r</tspan><tspan x="238.25" y="0">om the </tspan><tspan class="cls-31" x="276.89" y="0">A</tspan><tspan x="283.82" y="0">c</tspan><tspan class="cls-16" x="289.76" y="0">u</tspan><tspan class="cls-32" x="296.33" y="0">min </tspan><tspan class="cls-33" x="318.88" y="0">P</tspan><tspan class="cls-30" x="325.58" y="0">r</tspan><tspan x="329.77" y="0">o </tspan><tspan class="cls-34" x="338.99" y="0">f</tspan><tspan x="342.34" y="0">amily in semi</tspan><tspan class="cls-26" x="410.71" y="0">b</tspan><tspan x="417.38" y="0">old </tspan><tspan class="cls-13" x="436.22" y="0">w</tspan><tspan x="445.32" y="0">eight at the si</tspan><tspan class="cls-13" x="515.37" y="0">z</tspan><tspan x="520.49" y="0">e </tspan><tspan class="cls-24" x="529.53" y="0">o</tspan><tspan class="cls-32" x="535.97" y="0">f the </tspan><tspan class="cls-13" x="561.53" y="0">w</tspan><tspan class="cls-32" x="570.63" y="0">o</tspan><tspan class="cls-35" x="577.01" y="0">r</tspan><tspan x="581.19" y="0">d</tspan><tspan class="cls-36" x="587.82" y="0">m</tspan><tspan x="597.68" y="0">ar</tspan><tspan class="cls-37" x="608.24" y="0">k</tspan><tspan x="614.64" y="0">.</tspan><tspan x="0" y="18">No </tspan><tspan class="cls-38" x="16.99" y="18">o</tspan><tspan x="23.41" y="18">ther </tspan><tspan class="cls-23" x="47.1" y="18">t</tspan><tspan class="cls-13" x="51.12" y="18">y</tspan><tspan class="cls-38" x="56.92" y="18">p</tspan><tspan x="63.6" y="18">e, g</tspan><tspan class="cls-39" x="81.73" y="18">r</tspan><tspan x="85.78" y="18">aphic elemen</tspan><tspan class="cls-40" x="155.5" y="18">t</tspan><tspan class="cls-41" x="159.37" y="18">s</tspan><tspan class="cls-32" x="165.09" y="18">, l</tspan><tspan class="cls-42" x="173.34" y="18">o</tspan><tspan x="179.77" y="18">g</tspan><tspan class="cls-34" x="186.45" y="18">o</tspan><tspan class="cls-41" x="192.9" y="18">s</tspan><tspan class="cls-32" x="198.61" y="18">, or ident</tspan><tspan class="cls-22" x="243.56" y="18">i</tspan><tspan x="246.71" y="18">ti</tspan><tspan class="cls-14" x="253.39" y="18">e</tspan><tspan class="cls-28" x="259.67" y="18">s </tspan><tspan class="cls-43" x="268.18" y="18">s</tspan><tspan class="cls-32" x="273.79" y="18">hould ap</tspan><tspan class="cls-26" x="318.95" y="18">p</tspan><tspan class="cls-44" x="325.63" y="18">e</tspan><tspan x="331.75" y="18">ar </tspan><tspan class="cls-24" x="345.16" y="18">w</tspan><tspan class="cls-45" x="354.37" y="18">i</tspan><tspan class="cls-28" x="357.52" y="18">thin the </tspan><tspan class="cls-46" x="399.92" y="18">s</tspan><tspan class="cls-28" x="405.69" y="18">tand</tspan><tspan class="cls-42" x="429.03" y="18">o</tspan><tspan class="cls-28" x="435.47" y="18">ff a</tspan><tspan class="cls-35" x="451.07" y="18">r</tspan><tspan class="cls-47" x="455.25" y="18">e</tspan><tspan class="cls-32" x="461.37" y="18">a </tspan><tspan class="cls-14" x="470.54" y="18">f</tspan><tspan class="cls-32" x="473.9" y="18">or the ident</tspan><tspan class="cls-22" x="533.03" y="18">i</tspan><tspan class="cls-48" x="536.18" y="18">t</tspan><tspan class="cls-49" x="540.2" y="18">y</tspan><tspan x="545.31" y="18">. </tspan></text><text class="cls-19" transform="translate(120.17 863.4)"><tspan class="cls-20">S</tspan><tspan class="cls-21" x="6.41" y="0">p</tspan><tspan x="12.99" y="0">acing </tspan><tspan class="cls-14" x="44.49" y="0">f</tspan><tspan x="47.85" y="0">or the l</tspan><tspan class="cls-42" x="83.74" y="0">o</tspan><tspan x="90.18" y="0">go </tspan><tspan class="cls-24" x="106.08" y="0">w</tspan><tspan class="cls-22" x="115.29" y="0">i</tspan><tspan x="118.44" y="0">th </tspan><tspan class="cls-50" x="131.68" y="0">t</tspan><tspan class="cls-13" x="135.58" y="0">w</tspan><tspan x="144.69" y="0">o </tspan><tspan class="cls-18" x="153.91" y="0">c</tspan><tspan class="cls-32" x="159.96" y="0">opi</tspan><tspan class="cls-14" x="175.96" y="0">e</tspan><tspan class="cls-28" x="182.25" y="0">s </tspan><tspan class="cls-24" x="190.75" y="0">o</tspan><tspan class="cls-32" x="197.19" y="0">f the l</tspan><tspan class="cls-42" x="225.73" y="0">o</tspan><tspan class="cls-28" x="232.16" y="0">go at si</tspan><tspan class="cls-13" x="269.56" y="0">z</tspan><tspan x="274.67" y="0">e </tspan><tspan class="cls-51" x="283.72" y="0">c</tspan><tspan x="289.76" y="0">o</tspan><tspan class="cls-47" x="296.14" y="0">r</tspan><tspan x="300.31" y="0">ner </tspan><tspan class="cls-35" x="320.32" y="0">t</tspan><tspan x="323.93" y="0">o </tspan><tspan class="cls-18" x="333.16" y="0">c</tspan><tspan class="cls-32" x="339.2" y="0">o</tspan><tspan class="cls-52" x="345.58" y="0">r</tspan><tspan x="349.75" y="0">ne</tspan><tspan class="cls-53" x="362.66" y="0">r</tspan><tspan x="366.28" y="0">. Fi</tspan><tspan class="cls-54" x="380.48" y="0">n</tspan><tspan x="387.08" y="0">al l</tspan><tspan class="cls-42" x="402.21" y="0">o</tspan><tspan x="408.65" y="0">go </tspan><tspan class="cls-26" x="424.55" y="0">p</tspan><tspan class="cls-34" x="431.22" y="0">o</tspan><tspan x="437.67" y="0">s</tspan><tspan class="cls-22" x="443.33" y="0">i</tspan><tspan x="446.48" y="0">tion </tspan><tspan class="cls-51" x="469.1" y="0">c</tspan><tspan class="cls-28" x="475.14" y="0">en</tspan><tspan class="cls-35" x="488.06" y="0">t</tspan><tspan x="491.67" y="0">e</tspan><tspan class="cls-30" x="497.87" y="0">r</tspan><tspan class="cls-55" x="502.05" y="0">e</tspan><tspan x="508.38" y="0">d in the </tspan><tspan class="cls-16" x="549.87" y="0">s</tspan><tspan class="cls-13" x="555.44" y="0">p</tspan><tspan x="562.02" y="0">a</tspan><tspan class="cls-51" x="568.34" y="0">c</tspan><tspan class="cls-56" x="574.38" y="0">e</tspan><tspan x="580.65" y="0">.</tspan><tspan x="0" y="18">No </tspan><tspan class="cls-38" x="16.99" y="18">o</tspan><tspan x="23.41" y="18">ther </tspan><tspan class="cls-23" x="47.1" y="18">t</tspan><tspan class="cls-13" x="51.12" y="18">y</tspan><tspan class="cls-38" x="56.92" y="18">p</tspan><tspan x="63.6" y="18">e, g</tspan><tspan class="cls-39" x="81.73" y="18">r</tspan><tspan x="85.78" y="18">aphic elemen</tspan><tspan class="cls-40" x="155.5" y="18">t</tspan><tspan class="cls-41" x="159.37" y="18">s</tspan><tspan class="cls-32" x="165.09" y="18">, l</tspan><tspan class="cls-42" x="173.34" y="18">o</tspan><tspan x="179.77" y="18">g</tspan><tspan class="cls-34" x="186.45" y="18">o</tspan><tspan class="cls-41" x="192.9" y="18">s</tspan><tspan class="cls-32" x="198.61" y="18">, or ident</tspan><tspan class="cls-22" x="243.56" y="18">i</tspan><tspan x="246.71" y="18">ti</tspan><tspan class="cls-14" x="253.39" y="18">e</tspan><tspan class="cls-28" x="259.67" y="18">s </tspan><tspan class="cls-43" x="268.18" y="18">s</tspan><tspan class="cls-32" x="273.79" y="18">hould ap</tspan><tspan class="cls-26" x="318.95" y="18">p</tspan><tspan class="cls-44" x="325.63" y="18">e</tspan><tspan x="331.75" y="18">ar </tspan><tspan class="cls-24" x="345.16" y="18">w</tspan><tspan class="cls-45" x="354.37" y="18">i</tspan><tspan class="cls-28" x="357.52" y="18">thin the </tspan><tspan class="cls-46" x="399.92" y="18">s</tspan><tspan class="cls-28" x="405.69" y="18">tand</tspan><tspan class="cls-42" x="429.03" y="18">o</tspan><tspan class="cls-28" x="435.47" y="18">ff a</tspan><tspan class="cls-35" x="451.07" y="18">r</tspan><tspan class="cls-47" x="455.25" y="18">e</tspan><tspan class="cls-32" x="461.37" y="18">a </tspan><tspan class="cls-14" x="470.54" y="18">f</tspan><tspan class="cls-32" x="473.9" y="18">or the l</tspan><tspan class="cls-24" x="509.79" y="18">o</tspan><tspan x="516.23" y="18">g</tspan><tspan class="cls-21" x="522.9" y="18">o</tspan><tspan class="cls-28" x="529.23" y="18">. </tspan></text><line class="cls-57" x1="118.91" y1="137.28" x2="1801.06" y2="137.28"/></svg>